{
	"asset":{
		"generator":"Khronos glTF Blender I/O v4.0.44",
		"version":"2.0"
	},
	"scene":0,
	"scenes":[
		{
			"extras":{
				"ats_settings":{
					"num_tiles":[
						8,
						8
					],
					"threads_error":0,
					"prev_engine":"CYCLES",
					"prev_device":"CPU",
					"prev_border":0,
					"prev_threads":4,
					"prev_choice":"32",
					"prev_res":[
						256,
						256
					],
					"prev_border_res":[
						0.12792113423347473,
						0.3964492380619049,
						0.8096145391464233,
						0.6126788258552551
					],
					"prev_actual_tile_size":[
						32,
						32
					],
					"first_run":0
				},
				"namedlayers":{
					"layers":[
						{
							"name":"Layer01"
						},
						{
							"name":"Layer02"
						},
						{
							"name":"Layer03"
						},
						{
							"name":"Layer04"
						},
						{
							"name":"Layer05"
						},
						{
							"name":"Layer06"
						},
						{
							"name":"Layer07"
						},
						{
							"name":"Layer08"
						},
						{
							"name":"Layer09"
						},
						{
							"name":"Layer10"
						},
						{
							"name":"Layer11"
						},
						{
							"name":"Layer12"
						},
						{
							"name":"Layer13"
						},
						{
							"name":"Layer14"
						},
						{
							"name":"Layer15"
						},
						{
							"name":"Layer16"
						},
						{
							"name":"Layer17"
						},
						{
							"name":"Layer18"
						},
						{
							"name":"Layer19"
						},
						{
							"name":"Layer20"
						}
					],
					"use_init":0
				},
				"network_render":{},
				"svg_export":{},
				"keentools_gt_settings":{},
				"keentools_fb_settings":{}
			},
			"name":"heart",
			"nodes":[
				0
			]
		}
	],
	"nodes":[
		{
			"mesh":0,
			"name":"Heart",
			"scale":[
				7,
				9.999999046325684,
				7
			]
		}
	],
	"materials":[
		{
			"doubleSided":true,
			"name":"Material",
			"pbrMetallicRoughness":{}
		}
	],
	"meshes":[
		{
			"name":"Cube",
			"primitives":[
				{
					"attributes":{
						"COLOR_0":0,
						"POSITION":1,
						"NORMAL":2,
						"TEXCOORD_0":3,
						"TEXCOORD_1":4,
						"TEXCOORD_2":5,
						"TEXCOORD_3":6
					},
					"indices":7,
					"material":0
				}
			]
		}
	],
	"accessors":[
		{
			"bufferView":0,
			"componentType":5123,
			"count":78961,
			"normalized":true,
			"type":"VEC4"
		},
		{
			"bufferView":1,
			"componentType":5126,
			"count":78961,
			"max":[
				0.8109027147293091,
				1.0544075965881348,
				0.43494731187820435
			],
			"min":[
				-0.6671797633171082,
				-0.5731338262557983,
				-0.8510550260543823
			],
			"type":"VEC3"
		},
		{
			"bufferView":2,
			"componentType":5126,
			"count":78961,
			"type":"VEC3"
		},
		{
			"bufferView":3,
			"componentType":5126,
			"count":78961,
			"type":"VEC2"
		},
		{
			"bufferView":4,
			"componentType":5126,
			"count":78961,
			"type":"VEC2"
		},
		{
			"bufferView":5,
			"componentType":5126,
			"count":78961,
			"type":"VEC2"
		},
		{
			"bufferView":6,
			"componentType":5126,
			"count":78961,
			"type":"VEC2"
		},
		{
			"bufferView":7,
			"componentType":5125,
			"count":230778,
			"type":"SCALAR"
		}
	],
	"bufferViews":[
		{
			"buffer":0,
			"byteLength":631688,
			"byteOffset":0,
			"target":34962
		},
		{
			"buffer":0,
			"byteLength":947532,
			"byteOffset":631688,
			"target":34962
		},
		{
			"buffer":0,
			"byteLength":947532,
			"byteOffset":1579220,
			"target":34962
		},
		{
			"buffer":0,
			"byteLength":631688,
			"byteOffset":2526752,
			"target":34962
		},
		{
			"buffer":0,
			"byteLength":631688,
			"byteOffset":3158440,
			"target":34962
		},
		{
			"buffer":0,
			"byteLength":631688,
			"byteOffset":3790128,
			"target":34962
		},
		{
			"buffer":0,
			"byteLength":631688,
			"byteOffset":4421816,
			"target":34962
		},
		{
			"buffer":0,
			"byteLength":923112,
			"byteOffset":5053504,
			"target":34963
		}
	],
	"buffers":[
		{
			"byteLength":5976616,
			"uri":"beating-heart-v007a-animated.bin"
		}
	]
}
